<?xml version="1.0" encoding="utf-8"?>
<!-- Generator: Adobe Illustrator 26.3.1, SVG Export Plug-In . SVG Version: 6.00 Build 0)  -->
<svg version="1.1" id="Layer_1" xmlns="http://www.w3.org/2000/svg" xmlns:xlink="http://www.w3.org/1999/xlink" x="0px" y="0px"
	 viewBox="0 0 1080 1080" style="enable-background:new 0 0 1080 1080;" xml:space="preserve">
<style type="text/css">
	.st0{fill:none;stroke:#056938;stroke-width:13;stroke-miterlimit:10;}
	.st1{fill:none;stroke:#056938;stroke-width:7;stroke-miterlimit:10;}
	.st2{fill:#056938;}
</style>
<rect x="93.3" y="115.9" class="st0" width="869.1" height="869.1"/>
<line class="st0" x1="357.5" y1="985.1" x2="357.5" y2="115.9"/>
<line class="st0" x1="357.5" y1="505.7" x2="962.4" y2="505.7"/>
<line class="st0" x1="646.3" y1="505.7" x2="646.3" y2="985.1"/>
<polyline class="st0" points="515.7,505.7 515.7,310.8 515.7,115.9 "/>
<line class="st0" x1="515.7" y1="310.8" x2="962.4" y2="310.8"/>
<line class="st0" x1="357.5" y1="411.5" x2="515.7" y2="411.5"/>
<line class="st0" x1="436.6" y1="411.5" x2="436.6" y2="505.7"/>
<line class="st0" x1="93.3" y1="615" x2="357.5" y2="615"/>
<path class="st0" d="M357.5,820.4c0,0-11,164.6-132.1,164.6S93.3,814.6,93.3,814.6s-51.3-5.2-51.3,37c0,42.2,51.3,37,51.3,37"/>
<line class="st0" x1="225.4" y1="785.9" x2="225.4" y2="647.6"/>
<line class="st0" x1="288.5" y1="785.9" x2="288.5" y2="693.3"/>
<line class="st0" x1="163.6" y1="785.9" x2="163.6" y2="693.3"/>
<path class="st0" d="M705.7,899.7v-0.9V615c0,0,1.1-10.9,20.1-10.9c19,0,17.6,9.1,17.6,9.1v286.5c0,0-0.9,12.5-18.8,12.5
	C706.6,912.2,705.7,899.7,705.7,899.7z"/>
<path class="st0" d="M417.7,351.2v-0.6V172.3c0,0,1.1-6.8,20.1-6.8s17.6,5.7,17.6,5.7v180.1c0,0-0.9,7.9-18.8,7.9
	S417.7,351.2,417.7,351.2z"/>
<path class="st0" d="M785.4,899.7v-0.9V615c0,0,1.1-10.9,20.1-10.9c19,0,17.6,9.1,17.6,9.1v286.5c0,0-0.9,12.5-18.8,12.5
	C786.4,912.2,785.4,899.7,785.4,899.7z"/>
<path class="st0" d="M864.4,899.7v-0.9V615c0,0,1.1-10.9,20.1-10.9s17.6,9.1,17.6,9.1v286.5c0,0-0.9,12.5-18.8,12.5
	S864.4,899.7,864.4,899.7z"/>
<line class="st0" x1="430.8" y1="985.1" x2="466.8" y2="754.3"/>
<line class="st0" x1="573.9" y1="985.1" x2="537.3" y2="754.3"/>
<line class="st0" x1="450" y1="861.9" x2="554.4" y2="861.9"/>
<path class="st0" d="M391.3,656.2h224.3c0,0-8.2,101.9-113.4,101.9S391.3,656.2,391.3,656.2z"/>
<path class="st0" d="M390.1,644.4L614.4,621c0,0,11.1-83.3-116-83.3S390.1,644.4,390.1,644.4z"/>
<path class="st0" d="M472.4,539.5c0,0-9.1-33.8,27.2-33.8s28,33.8,28,33.8"/>
<line class="st0" x1="615.6" y1="666.4" x2="643.8" y2="666.4"/>
<line class="st0" x1="392.6" y1="666.2" x2="357.5" y2="666.2"/>
<path class="st0" d="M93.3,290.5c0,0,100.5-42.8,100.5-56s-0.5-85.4-4.9-118.6"/>
<path class="st0" d="M357.5,290.5c-7.2,6.6-98-44.1-98-50.1s4.2-107.3,4.2-124.5"/>
<path class="st0" d="M357.5,172.8c0,0,16.3-56.9,79.1-56.9s79.1,49.5,79.1,49.5"/>
<path class="st0" d="M905.6,505.7c29,0,55-23.3,55-52.4c0-29-23.5-52.6-52.6-52.6c-2.8,0-5.6,0.2-8.2,0.6c0.3-2.5,0.4-5,0.4-7.5
	c0-38.7-31.4-70.1-70.1-70.1c-38.7,0-70.1,31.4-70.1,70.1c0,1-0.2,2.9,0.1,2.9c0.2,0-13.6-17.5-23.3-17.5
	c-15.6,0-28.3,18.2-28.3,40.6c0,1.3,0,2.5,0.1,3.7c-5.9-2.6-12.4-4.1-19.3-4.1c-26.2,0-47.5,21.3-47.5,47.5
	c0,18.1,18.7,30.7,33.6,38.7"/>
<path class="st0" d="M641.9,452.4"/>
<path class="st0" d="M641.9,452.4c-5.2,1.9-10.9,3-16.8,3c-27,0-48.9-21.9-48.9-48.9s21.9-48.9,48.9-48.9c27,0,48.9,21.9,48.9,48.9
	c0,2.5-0.2,10.8-0.6,13.3"/>
<line class="st1" x1="671.6" y1="365.8" x2="686" y2="351.3"/>
<line class="st1" x1="627.2" y1="345.3" x2="627.2" y2="331.9"/>
<line class="st1" x1="583" y1="364.5" x2="572.4" y2="353.5"/>
<line class="st1" x1="563.8" y1="409.4" x2="550.8" y2="409.4"/>
<line class="st1" x1="572.4" y1="464.2" x2="583" y2="455.3"/>
<line class="st1" x1="628.7" y1="487.3" x2="628.7" y2="472.6"/>
<path class="st0" d="M563.8,115.9c0,0,80.2,74.8,175.3,74.8s177.6-74,177.6-74s38.1,4.1,44.7,56c6.5,51.9-64.9,138-227.6,138
	s-218-91.8-218-104.1c0-12.3-1.1-44.4,12.2-62.3C543.6,123.1,543.7,114.9,563.8,115.9z"/>
<path class="st2" d="M590.8,137.2c0,0-7.6,20.8-11.6,25.1c-4.5,10.4-2.6,47.2,0,48.1c0,0,30.9-47.2,33.9-58.7"/>
<path class="st2" d="M635.1,163.8c0,0-4.7,20-9.5,32c-6.1,15-4.7,47.5,4.8,51.8c0,0,28.2-66,30-72.6"/>
<path class="st2" d="M674,179.8v43.8c0,9.7,5.3,37.5,16.2,41.5c5.3-25.9,8.1-52.2,8.2-78.8"/>
<path class="st2" d="M724.5,190.2c0,0,7.6,72.4,13,75c5.3,2.7,16.2-75,16.2-75"/>
<path class="st2" d="M804.3,179.9v47.8c0,10.3-7.5,24.3-18.1,37.6c-3.7,4.7-8.2-78.5-8.2-78.5"/>
<path class="st2" d="M840.5,165.4l10.8,24.7c4.7,28.2,3.8,44.6,0,54.8c0,0-24.5-60.4-30.2-71.1"/>
<path class="st2" d="M868.4,150.5c0,0,23,50.7,27.2,52.2c4.2,1.5,0.2-49.4-6.5-65.5"/>
<line class="st0" x1="93.3" y1="814.6" x2="357.5" y2="814.6"/>
<path class="st0" d="M962.4,707.2c102.2,0,102.2,123.8,0,123.8"/>
</svg>
