<?xml version="1.0" encoding="utf-8"?>
<!-- Generator: Adobe Illustrator 26.3.1, SVG Export Plug-In . SVG Version: 6.00 Build 0)  -->
<svg version="1.1" id="Layer_1" xmlns="http://www.w3.org/2000/svg" xmlns:xlink="http://www.w3.org/1999/xlink" x="0px" y="0px"
	 viewBox="0 0 480 780" style="enable-background:new 0 0 480 780;" xml:space="preserve">
<style type="text/css">
	.st0{fill:none;stroke:#FFFFFF;stroke-width:26;stroke-linecap:round;stroke-miterlimit:10;}
</style>
<path class="st0" d="M24.3,406.6c11.3-106.5,127.1-190.2,144.1-203.7S340.8,75.1,460.1,59.5S626.9,78,672.3,138.3
	c45.4,60.3-12.1,175.2-24,185.2c-11.9,10-74.3,98.2-78.2,145.5c-3.8,47.3-44.8,134.4-44.8,134.4c-52.7,73.2-132.7,125.3-229.8,125.3
	c-140.2,0-244-87.5-271.3-219.7C20.4,474.2,19.9,440,24.3,406.6z"/>
<path class="st0" d="M493.1,485.4c-8,101.6-98.8,179.4-203.3,179.4c-113.2,0-204.9-91.7-204.9-204.9c0-52.2,19.5-99.8,51.6-136
	c0,0,137.1-120.8,198.9-155.2s112.5-72.4,224.4-34.9s38.9,143.9,9,182.8C538.9,355.6,498.1,422,493.1,485.4z"/>
<circle class="st0" cx="286.9" cy="466.1" r="65.4"/>
</svg>
