<?xml version="1.0" encoding="utf-8"?>
<!-- Generator: Adobe Illustrator 26.3.1, SVG Export Plug-In . SVG Version: 6.00 Build 0)  -->
<svg version="1.1" id="Layer_1" xmlns="http://www.w3.org/2000/svg" xmlns:xlink="http://www.w3.org/1999/xlink" x="0px" y="0px"
	 viewBox="0 0 480 780" style="enable-background:new 0 0 480 780;" xml:space="preserve">
<style type="text/css">
	.st0{fill:none;stroke:#FFFFFF;stroke-width:16;stroke-miterlimit:10;}
	.st1{fill:none;stroke:#FFFFFF;stroke-width:15;stroke-miterlimit:10;}
	.st2{fill:none;stroke:#FFFFFF;stroke-width:11;stroke-miterlimit:10;}
	.st3{fill:none;stroke:#FFFFFF;stroke-width:12;stroke-miterlimit:10;}
	.st4{fill:none;stroke:#FFFFFF;stroke-width:8;stroke-linecap:round;stroke-miterlimit:10;}
	.st5{fill:none;stroke:#FFFFFF;stroke-width:10;stroke-miterlimit:10;}
	.st6{fill:none;stroke:#FFFFFF;stroke-width:8;stroke-miterlimit:10;}
</style>
<path class="st0" d="M71,108.6c321.3,0,288.7,203.2,288.7,234.2s-38.7,26.4-38.7,26.4h-504.3c0,0-29.5,7.3-29.5-32.8
	S-195.1,108.6,71,108.6z"/>
<path class="st1" d="M325.5,646.2c50.7,4.9,40.2-93.8,40.2-93.8H-216c0,0-6.3,94,61.7,94L325.5,646.2z"/>
<path class="st2" d="M-200.3,558.8c0,0,0.2,26.3,65.3,26.3s68.2-26.3,68.2-26.3"/>
<path class="st2" d="M-59.5,555.8c0,0,0.2,26.3,65.3,26.3S74,555.8,74,555.8"/>
<path class="st2" d="M170.7,584.3c47.5-4.4,50-25.5,50-25.5"/>
<path class="st2" d="M87.2,558.8c0,0,0.2,19.5,41.8,24.9"/>
<path class="st2" d="M220.7,558.8c0,0,0.2,26.3,65.3,26.3s68.2-26.3,68.2-26.3"/>
<path class="st2" d="M-197.4,397c0,0,0.2,25.4,63.1,25.4S-68.4,397-68.4,397"/>
<path class="st2" d="M49.3,417.3c17.1-7.5,18.3-17.7,18.3-17.7"/>
<path class="st2" d="M49.3,417.3"/>
<path class="st2" d="M-61.4,399.5c0,0,0.2,25.4,63.1,25.4c10.7,0,19.6-0.7,27.1-1.9"/>
<path class="st2" d="M137.3,422.3c2,0.1,4.1,0.1,6.3,0.1c62.9,0,65.9-25.4,65.9-25.4"/>
<path class="st2" d="M137.3,422.3"/>
<path class="st2" d="M80.5,397c0,0,0.1,14.9,28.4,21.8"/>
<path class="st2" d="M293.1,421.3c43.1-4.8,45.4-24.3,45.4-24.3"/>
<path class="st2" d="M209.5,397c0,0,0.2,21.9,50.5,25"/>
<path class="st3" d="M349.5,470.8c0,0,19.2-0.9,19.2,26.6s-14.4,26.6-14.4,26.6l-554.2,2.3c0,0-18.4-1.7-18.4-20.8
	c0-19-2.9-34.8,33.5-34.8S349.5,470.8,349.5,470.8z"/>
<path class="st2" d="M349.5,397.2c0,0,19.2-0.9,19.2,26.6c0,27.5-14.4,26.6-14.4,26.6l-554.2,2.3c0,0-18.4-1.7-18.4-20.8
	s-2.9-34.8,33.5-34.8S349.5,397.2,349.5,397.2z"/>
<line class="st4" x1="-41.4" y1="199" x2="-78" y2="235.5"/>
<line class="st4" x1="104.1" y1="199" x2="67.5" y2="235.5"/>
<line class="st4" x1="232.2" y1="205.9" x2="195.7" y2="239.2"/>
<line class="st4" x1="160.5" y1="302.8" x2="127.3" y2="266.2"/>
<line class="st4" x1="290.6" y1="297.3" x2="257.4" y2="260.7"/>
<line class="st4" x1="32.5" y1="301.2" x2="-0.7" y2="264.6"/>
<path class="st3" d="M254.1,400.1v84.2c0,12.7,39.8,12.7,39.8,0v-84.2"/>
<path class="st5" d="M104.1,397v37.2c0,15.6,28.9,15.6,28.9,0V397"/>
<path class="st6" d="M53.9,397v65.5c0,25.5-29.9,25.5-29.9,0V397"/>
<path class="st1" d="M133,552.3v94c0,33.4,37.7,33.4,37.7,0l0-94"/>
</svg>
