<?xml version="1.0" encoding="utf-8"?>
<!-- Generator: Adobe Illustrator 26.3.1, SVG Export Plug-In . SVG Version: 6.00 Build 0)  -->
<svg version="1.1" id="Layer_1" xmlns="http://www.w3.org/2000/svg" xmlns:xlink="http://www.w3.org/1999/xlink" x="0px" y="0px"
	 viewBox="0 0 480 780" style="enable-background:new 0 0 480 780;" xml:space="preserve">
<style type="text/css">
	.st0{fill:none;stroke:#056338;stroke-width:21;stroke-miterlimit:10;}
	.st1{fill:none;stroke:#FFFFFF;stroke-width:21;stroke-miterlimit:10;}
	.st2{fill:none;stroke:#FFFFFF;stroke-width:21;stroke-linecap:round;stroke-miterlimit:10;}
</style>
<path class="st0" d="M-105.4,647.4c2.5,12.8-36.9-82,75.1-121.6s151.6-79.2,163.9-94.3s95.6-109.3,125.7-206.3
	c30.1-97,118.8-45.1,118.8-45.1s73.8,51.9,31.4,146.2S280.4,529,270,545.1s-110.4,113.1-241.6,150
	C-102.7,732.1-108,634.6-105.4,647.4z"/>
<path class="st0" d="M-110.2,621.1c0,0-70.1,12.1-95.6-44.6S-158,493-158,493c0,0,182.1-56.7,254.5-153.1
	c72.4-96.3,109.8-223.5,109.8-223.5s15.4-35.6,65.5-22.2s54.9,72,54.9,72"/>
<path class="st0" d="M-177.2,502.7c0,0-26.7-63.7,28.2-90.7s134.8-49.1,186.8-107.9S108.2,153,108.2,153s30.8-56.8,98.2-36.6"/>
<path class="st1" d="M-123.3,642.2c2.5,12.8-36.9-82,75.1-121.6c112-39.6,151.6-79.2,163.9-94.3c12.3-15,95.6-109.3,125.7-206.3
	s129.3-34.6,129.3-34.6s63.3,41.4,21,135.7S258,528.5,247.5,544.6C237,560.7,141.7,653.2,10.5,690
	C-120.6,726.9-125.8,629.4-123.3,642.2z"/>
<path class="st1" d="M-128.1,616c0,0-70.1,12.1-95.6-44.6s47.8-83.5,47.8-83.5c0,0,182.1-56.7,254.5-153.1
	c72.4-96.3,109.8-223.5,109.8-223.5s15.4-35.6,65.5-22.2s54.9,72,54.9,72"/>
<path class="st1" d="M-195,497.6c0,0-26.7-63.7,28.2-90.7S-32,357.8,20,299.1s70.3-130,70.3-130s30.8-78,98.2-57.8"/>
<path class="st2" d="M-137.1,553.1c0,0,3.6-51.8,54.2-79.1s47.6,15.7,102.7-15.8s-7.6-42.7,30.4-74.6s44.2,4.6,72.5-26.3
	s-16.9-49.4,4.7-87s36.5-4.1,65.3-46.8S177.6,150,177.6,150"/>
</svg>
