<?xml version="1.0" encoding="utf-8"?>
<!-- Generator: Adobe Illustrator 26.3.1, SVG Export Plug-In . SVG Version: 6.00 Build 0)  -->
<svg version="1.1" id="Layer_1" xmlns="http://www.w3.org/2000/svg" xmlns:xlink="http://www.w3.org/1999/xlink" x="0px" y="0px"
	 viewBox="0 0 480 780" style="enable-background:new 0 0 480 780;" xml:space="preserve">
<style type="text/css">
	.st0{fill:#FFFFFF;}
	.st1{fill:none;stroke:#056338;stroke-width:11;stroke-miterlimit:10;}
	.st2{fill:none;stroke:#FFFFFF;stroke-width:11;stroke-miterlimit:10;}
	.st3{fill:none;stroke:#FFFFFF;stroke-width:7;stroke-miterlimit:10;}
	.st4{fill:none;stroke:#FFFFFF;stroke-width:8;stroke-linecap:round;stroke-miterlimit:10;}
	.st5{fill:none;stroke:#056338;stroke-width:15;stroke-miterlimit:10;}
	.st6{fill:none;stroke:#FFFFFF;stroke-width:12;stroke-miterlimit:10;}
	.st7{fill:none;stroke:#FFFFFF;stroke-width:10;stroke-miterlimit:10;}
	.st8{fill:none;stroke:#FFFFFF;stroke-width:8;stroke-miterlimit:10;}
	.st9{fill:none;stroke:#FFFFFF;stroke-width:15;stroke-miterlimit:10;}
	.st10{fill:none;stroke:#FFFFFF;stroke-width:11;stroke-linecap:round;stroke-miterlimit:10;}
	.st11{fill:none;stroke:#FFFFFF;stroke-width:13;stroke-miterlimit:10;}
	.st12{fill:none;stroke:#FFFFFF;stroke-width:9;stroke-miterlimit:10;}
	.st13{fill:none;stroke:#FFFFFF;stroke-width:5;stroke-miterlimit:10;}
</style>
<g>
	<text transform="matrix(1 0 0 1 -1338.989 -95.1787)" class="st0" style="font-family:'Poppins-Black'; font-size:83.5764px;">MENU</text>
</g>
<path class="st0" d="M-1164.2,297"/>
<path class="st1" d="M-1879.1,17.7c169.8,0,152.6,107.4,152.6,123.7s-20.4,14-20.4,14h-266.5c0,0-15.6,3.9-15.6-17.3
	S-2019.7,17.7-1879.1,17.7z"/>
<path class="st1" d="M-1744.7,301.7c26.8,2.6,21.2-49.6,21.2-49.6h-307.3c0,0-3.3,49.7,32.6,49.7L-1744.7,301.7z"/>
<path class="st1" d="M-1732,209.1c0,0,10.1-0.5,10.1,14c0,14.5-7.6,14-7.6,14l-292.8,1.2c0,0-9.7-0.9-9.7-11s-1.5-18.4,17.7-18.4
	S-1732,209.1-1732,209.1z"/>
<path class="st1" d="M-1732,170.2c0,0,10.1-0.5,10.1,14c0,14.5-7.6,14-7.6,14l-292.8,1.2c0,0-9.7-0.9-9.7-11
	c0-10.1-1.5-18.4,17.7-18.4S-1732,170.2-1732,170.2z"/>
<path class="st2" d="M-1881.9,12.4c169.8,0,152.6,107.4,152.6,123.7s-20.4,14-20.4,14h-266.5c0,0-15.6,3.9-15.6-17.3
	S-2022.5,12.4-1881.9,12.4z"/>
<path class="st2" d="M-1747.4,296.4c26.8,2.6,21.2-49.6,21.2-49.6h-307.3c0,0-3.3,49.7,32.6,49.7L-1747.4,296.4z"/>
<path class="st2" d="M-2025.3,250.3c0,0,0.1,13.9,34.5,13.9c34.4,0,36-13.9,36-13.9"/>
<path class="st2" d="M-1950.9,248.7c0,0,0.1,13.9,34.5,13.9c34.4,0,36-13.9,36-13.9"/>
<path class="st2" d="M-1829.2,263.8c25.1-2.3,26.4-13.5,26.4-13.5"/>
<path class="st2" d="M-1873.4,250.3c0,0,0.1,10.3,22.1,13.1"/>
<path class="st2" d="M-1802.8,250.3c0,0,0.1,13.9,34.5,13.9c34.4,0,36-13.9,36-13.9"/>
<path class="st2" d="M-2023.7,164.8c0,0,0.1,13.4,33.3,13.4s34.8-13.4,34.8-13.4"/>
<path class="st2" d="M-1893.3,175.5c9-3.9,9.7-9.4,9.7-9.4"/>
<path class="st2" d="M-1893.3,175.5"/>
<path class="st2" d="M-1951.8,166.1c0,0,0.1,13.4,33.3,13.4c5.6,0,10.3-0.4,14.3-1"/>
<path class="st2" d="M-1846.9,178.2c1.1,0,2.2,0,3.3,0c33.2,0,34.8-13.4,34.8-13.4"/>
<path class="st2" d="M-1846.9,178.2"/>
<path class="st2" d="M-1876.9,164.8c0,0,0.1,7.9,15,11.5"/>
<path class="st2" d="M-1764.5,177.7c22.8-2.5,24-12.9,24-12.9"/>
<path class="st1" d="M-1944.3,704.5c1.1,5.4-15.6-34.6,31.7-51.3c47.2-16.7,63.9-33.4,69.1-39.7c5.2-6.3,40.3-46.1,53-87
	c12.7-40.9,50.1-19,50.1-19s31.1,21.9,13.2,61.6s-54.4,85.4-58.8,92.2c-4.4,6.8-46.5,47.7-101.8,63.2S-1945.3,699.1-1944.3,704.5z"
	/>
<path class="st1" d="M-1946.3,693.5c0,0-29.5,5.1-40.3-18.8c-10.7-23.9,20.1-35.2,20.1-35.2c0,0,76.8-23.9,107.3-64.5
	c30.5-40.6,46.3-94.2,46.3-94.2s6.5-15,27.6-9.3c21.1,5.7,23.1,30.4,23.1,30.4"/>
<path class="st1" d="M-1974.5,643.5c0,0-11.3-26.8,11.9-38.2c23.1-11.4,56.8-20.7,78.8-45.5c21.9-24.8,29.6-63.7,29.6-63.7
	s13-24,41.4-15.4"/>
<path class="st2" d="M-1808.7,164.8c0,0,0.1,11.6,26.7,13.2"/>
<path class="st3" d="M-1734.7,203.8c0,0,10.1-0.5,10.1,14c0,14.5-7.6,14-7.6,14l-292.8,1.2c0,0-9.7-0.9-9.7-11
	c0-10.1-1.5-18.4,17.7-18.4S-1734.7,203.8-1734.7,203.8z"/>
<path class="st3" d="M-1734.7,164.9c0,0,10.1-0.5,10.1,14s-7.6,14-7.6,14l-292.8,1.2c0,0-9.7-0.9-9.7-11s-1.5-18.4,17.7-18.4
	S-1734.7,164.9-1734.7,164.9z"/>
<line class="st4" x1="-1941.3" y1="60.2" x2="-1960.6" y2="79.5"/>
<line class="st4" x1="-1864.4" y1="60.2" x2="-1883.8" y2="79.5"/>
<line class="st4" x1="-1796.7" y1="63.8" x2="-1816" y2="81.4"/>
<path class="st5" d="M88.9,290.4l74.4,458.8h407.9l74.3-458.8c0,0-73-18.8-120,37.6c-47,56.4-94,87.2-158.3,87.2
	S233,375,212.9,342.8S156.7,278.4,88.9,290.4z"/>
<path class="st5" d="M139.8,245.4V143.8l48.8-18.4v142.1C188.5,267.5,164.1,250,139.8,245.4z"/>
<path class="st5" d="M367.2,366.7V48.3l50.6,13.3v288.1C417.7,349.7,411.2,359.3,367.2,366.7z"/>
<path class="st5" d="M447.7,335.7v-234l44-14.8v196.4C491.7,283.3,465.5,331,447.7,335.7z"/>
<path class="st5" d="M520.7,263.6V137.2l48.7,15v87.1C569.4,239.3,543.2,253.3,520.7,263.6z"/>
<line class="st4" x1="-1834.6" y1="115" x2="-1852.2" y2="95.7"/>
<line class="st4" x1="-1765.9" y1="112.1" x2="-1783.4" y2="92.8"/>
<line class="st4" x1="-1902.2" y1="114.2" x2="-1919.8" y2="94.8"/>
<path class="st6" d="M-1785.2,166.4v44.5c0,6.7,21,6.7,21,0v-44.5"/>
<path class="st7" d="M-1864.4,164.8v19.7c0,8.2,15.3,8.2,15.3,0v-19.7"/>
<path class="st8" d="M-1891,164.8v34.6c0,13.5-15.8,13.5-15.8,0v-34.6"/>
<path class="st9" d="M-1849.2,246.9v49.7c0,17.7,19.9,17.7,19.9,0v-49.7"/>
<path class="st2" d="M-1951.8,702.4c1.1,5.4-15.6-34.6,31.7-51.3c47.2-16.7,63.9-33.4,69.1-39.7c5.2-6.3,40.3-46.1,53-87
	c12.7-40.9,54.5-14.6,54.5-14.6s26.7,17.5,8.8,57.2c-17.9,39.7-56.4,87.4-60.8,94.2c-4.4,6.8-44.6,45.8-99.9,61.3
	C-1950.7,738.1-1952.9,697-1951.8,702.4z"/>
<path class="st2" d="M-1953.8,691.3c0,0-29.5,5.1-40.3-18.8s20.1-35.2,20.1-35.2c0,0,76.8-23.9,107.3-64.5
	c30.5-40.6,46.3-94.2,46.3-94.2s6.5-15,27.6-9.3s23.1,30.4,23.1,30.4"/>
<path class="st2" d="M-1982,641.4c0,0-11.3-26.8,11.9-38.2s56.8-20.7,78.8-45.5c21.9-24.8,29.6-54.8,29.6-54.8s13-32.9,41.4-24.4"/>
<path class="st10" d="M-1957.6,664.8c0,0,1.5-21.9,22.9-33.3c21.3-11.5,20.1,6.6,43.3-6.6c23.2-13.3-3.2-18,12.8-31.5
	s18.6,1.9,30.5-11.1c11.9-13-7.1-20.8,2-36.7c9.1-15.8,15.4-1.7,27.5-19.7c12.1-18-6.4-31-6.4-31"/>
<path class="st1" d="M-572.5,114.9c-10.4,22.3-28.2,61.1,8.5,97.9c36.7,36.7,82.5,36.7,115,4.1s24.1-62.1,31.4-79.1
	s37.4-49.6,41.2-62.7c3.7-13.1-0.1-36.2-16.4-43.5s-26.2-14-68.8,5.1S-562.1,92.6-572.5,114.9z"/>
<path class="st1" d="M-600.4,105.9c-13.5,29-40,82.5,7.9,130.2s110.7,44.4,153.1,2.2s38.7-73.2,48.3-95.3
	c9.5-22.1,41.4-71.8,46.3-88.8c4.9-17-0.2-47-21.3-56.5s-34.2-18.2-89.7,6.7S-586.9,76.9-600.4,105.9z"/>
<circle class="st1" cx="-509.5" cy="159.2" r="28.8"/>
<path class="st11" d="M-566.4,108.2c-10.1,15.5-31.1,63.9,5.7,100.7c36.7,36.7,85.3,33.9,117.9,1.3s24.1-62.1,31.4-79.1
	s37.4-49.6,41.2-62.7s-0.1-36.2-16.4-43.5c-16.3-7.3-26.2-14-68.8,5.1S-556.2,92.8-566.4,108.2z"/>
<path class="st11" d="M-590.5,99.2c-14.9,23.7-43.9,82.7,4,130.3c47.9,47.7,110.9,44.3,153.3,2.1s38.7-73.2,48.3-95.3
	c9.5-22.1,41.4-71.8,46.3-88.8s-0.2-47-21.3-56.5s-34.2-18.2-89.7,6.7S-575.6,75.5-590.5,99.2z"/>
<circle class="st11" cx="-503.3" cy="152.5" r="28.8"/>
<path class="st9" d="M104.2,290.4l74.4,458.8h407.9l74.3-458.8c0,0-73-18.8-120,37.6s-94,87.2-158.3,87.2S248.3,375,228.2,342.8
	S172,278.4,104.2,290.4z"/>
<path class="st9" d="M160.9,245.4V143.8l48.8-18.4v142.1C209.7,267.5,185.3,250,160.9,245.4z"/>
<path class="st9" d="M238.1,299.2v-211l48.8,15c0,0,2.6,242,0,242S253.1,321.7,238.1,299.2z"/>
<path class="st9" d="M319.8,357.2V40.8l49.6-18.6v344.4C369.4,366.6,340.4,368.5,319.8,357.2z"/>
<path class="st9" d="M393.8,366.7V48.3l50.6,13.3v288.1C444.3,349.7,437.8,359.3,393.8,366.7z"/>
<path class="st9" d="M474.3,335.7v-234l44-14.8v196.4C518.3,283.3,492.1,331,474.3,335.7z"/>
<path class="st9" d="M547.3,263.6V137.2l48.7,15v87.1C596,239.3,569.8,253.3,547.3,263.6z"/>
<line class="st11" x1="-1491.6" y1="-9" x2="-1262.2" y2="-9"/>
<line class="st11" x1="-1499.8" y1="385.7" x2="-1270.4" y2="385.7"/>
<line class="st12" x1="-1582.8" y1="72.6" x2="-1446.9" y2="72.6"/>
<line class="st13" x1="-1582.8" y1="95.7" x2="-1318" y2="95.7"/>
<line class="st13" x1="-1307.6" y1="95.7" x2="-1224.5" y2="95.7"/>
<line class="st13" x1="-1582.8" y1="108.9" x2="-1403" y2="108.9"/>
<line class="st13" x1="-1394.9" y1="108.9" x2="-1339" y2="108.9"/>
<line class="st13" x1="-1331.2" y1="108.9" x2="-1272.7" y2="108.9"/>
<line class="st13" x1="-1582.8" y1="119.8" x2="-1501.2" y2="119.8"/>
<line class="st13" x1="-1492.9" y1="119.8" x2="-1375.1" y2="119.8"/>
<line class="st12" x1="-1582.1" y1="149.2" x2="-1446.2" y2="149.2"/>
<line class="st13" x1="-1582.1" y1="172.3" x2="-1317.3" y2="172.3"/>
<line class="st13" x1="-1306.9" y1="172.3" x2="-1223.8" y2="172.3"/>
<line class="st13" x1="-1582.1" y1="185.5" x2="-1402.3" y2="185.5"/>
<line class="st13" x1="-1394.2" y1="185.5" x2="-1338.3" y2="185.5"/>
<line class="st13" x1="-1330.5" y1="185.5" x2="-1272" y2="185.5"/>
<line class="st13" x1="-1582.1" y1="196.4" x2="-1500.5" y2="196.4"/>
<line class="st13" x1="-1492.2" y1="196.4" x2="-1374.4" y2="196.4"/>
<line class="st12" x1="-1582.1" y1="149.2" x2="-1446.2" y2="149.2"/>
<line class="st13" x1="-1582.1" y1="172.3" x2="-1317.3" y2="172.3"/>
<line class="st13" x1="-1306.9" y1="172.3" x2="-1223.8" y2="172.3"/>
<line class="st13" x1="-1582.1" y1="185.5" x2="-1402.3" y2="185.5"/>
<line class="st13" x1="-1394.2" y1="185.5" x2="-1338.3" y2="185.5"/>
<line class="st13" x1="-1330.5" y1="185.5" x2="-1272" y2="185.5"/>
<line class="st13" x1="-1582.1" y1="196.4" x2="-1500.5" y2="196.4"/>
<line class="st13" x1="-1492.2" y1="196.4" x2="-1374.4" y2="196.4"/>
<line class="st12" x1="-1582.1" y1="230.1" x2="-1446.2" y2="230.1"/>
<line class="st13" x1="-1582.1" y1="253.3" x2="-1317.3" y2="253.3"/>
<line class="st13" x1="-1306.9" y1="253.3" x2="-1223.8" y2="253.3"/>
<line class="st13" x1="-1582.1" y1="266.5" x2="-1402.3" y2="266.5"/>
<line class="st13" x1="-1394.2" y1="266.5" x2="-1338.3" y2="266.5"/>
<line class="st13" x1="-1330.5" y1="266.5" x2="-1272" y2="266.5"/>
<line class="st13" x1="-1582.1" y1="277.4" x2="-1500.5" y2="277.4"/>
<line class="st13" x1="-1492.2" y1="277.4" x2="-1374.4" y2="277.4"/>
<line class="st12" x1="-1582.1" y1="230.1" x2="-1446.2" y2="230.1"/>
<line class="st13" x1="-1582.1" y1="253.3" x2="-1317.3" y2="253.3"/>
<line class="st13" x1="-1306.9" y1="253.3" x2="-1223.8" y2="253.3"/>
<line class="st13" x1="-1582.1" y1="266.5" x2="-1402.3" y2="266.5"/>
<line class="st13" x1="-1394.2" y1="266.5" x2="-1338.3" y2="266.5"/>
<line class="st13" x1="-1330.5" y1="266.5" x2="-1272" y2="266.5"/>
<line class="st13" x1="-1582.1" y1="277.4" x2="-1500.5" y2="277.4"/>
<line class="st13" x1="-1492.2" y1="277.4" x2="-1374.4" y2="277.4"/>
<line class="st12" x1="-1582.5" y1="471" x2="-1446.5" y2="471"/>
<line class="st13" x1="-1582.5" y1="494.1" x2="-1317.6" y2="494.1"/>
<line class="st13" x1="-1307.2" y1="494.1" x2="-1224.2" y2="494.1"/>
<line class="st13" x1="-1582.5" y1="507.3" x2="-1402.6" y2="507.3"/>
<line class="st13" x1="-1394.6" y1="507.3" x2="-1338.6" y2="507.3"/>
<line class="st13" x1="-1330.8" y1="507.3" x2="-1272.3" y2="507.3"/>
<line class="st13" x1="-1582.5" y1="518.2" x2="-1500.8" y2="518.2"/>
<line class="st13" x1="-1492.5" y1="518.2" x2="-1374.8" y2="518.2"/>
<line class="st12" x1="-1581.8" y1="547.6" x2="-1445.8" y2="547.6"/>
<line class="st13" x1="-1581.8" y1="570.7" x2="-1316.9" y2="570.7"/>
<line class="st13" x1="-1306.5" y1="570.7" x2="-1223.4" y2="570.7"/>
<line class="st13" x1="-1581.8" y1="584" x2="-1401.9" y2="584"/>
<line class="st13" x1="-1393.9" y1="584" x2="-1337.9" y2="584"/>
<line class="st13" x1="-1330.1" y1="584" x2="-1271.6" y2="584"/>
<line class="st13" x1="-1581.8" y1="594.8" x2="-1500.1" y2="594.8"/>
<line class="st13" x1="-1491.8" y1="594.8" x2="-1374" y2="594.8"/>
<line class="st12" x1="-1581.8" y1="547.6" x2="-1445.8" y2="547.6"/>
<line class="st13" x1="-1581.8" y1="570.7" x2="-1316.9" y2="570.7"/>
<line class="st13" x1="-1306.5" y1="570.7" x2="-1223.4" y2="570.7"/>
<line class="st13" x1="-1581.8" y1="584" x2="-1401.9" y2="584"/>
<line class="st13" x1="-1393.9" y1="584" x2="-1337.9" y2="584"/>
<line class="st13" x1="-1330.1" y1="584" x2="-1271.6" y2="584"/>
<line class="st13" x1="-1581.8" y1="594.8" x2="-1500.1" y2="594.8"/>
<line class="st13" x1="-1491.8" y1="594.8" x2="-1374" y2="594.8"/>
<line class="st12" x1="-1581.8" y1="628.6" x2="-1445.8" y2="628.6"/>
<line class="st13" x1="-1581.8" y1="651.7" x2="-1316.9" y2="651.7"/>
<line class="st13" x1="-1306.5" y1="651.7" x2="-1223.4" y2="651.7"/>
<line class="st13" x1="-1581.8" y1="664.9" x2="-1401.9" y2="664.9"/>
<line class="st13" x1="-1393.9" y1="664.9" x2="-1337.9" y2="664.9"/>
<line class="st13" x1="-1330.1" y1="664.9" x2="-1271.6" y2="664.9"/>
<line class="st13" x1="-1581.8" y1="675.8" x2="-1500.1" y2="675.8"/>
<line class="st13" x1="-1491.8" y1="675.8" x2="-1374" y2="675.8"/>
<line class="st12" x1="-1581.8" y1="628.6" x2="-1445.8" y2="628.6"/>
<line class="st13" x1="-1581.8" y1="651.7" x2="-1316.9" y2="651.7"/>
<line class="st13" x1="-1306.5" y1="651.7" x2="-1223.4" y2="651.7"/>
<line class="st13" x1="-1581.8" y1="664.9" x2="-1401.9" y2="664.9"/>
<line class="st13" x1="-1393.9" y1="664.9" x2="-1337.9" y2="664.9"/>
<line class="st13" x1="-1330.1" y1="664.9" x2="-1271.6" y2="664.9"/>
<line class="st13" x1="-1581.8" y1="675.8" x2="-1500.1" y2="675.8"/>
<line class="st13" x1="-1491.8" y1="675.8" x2="-1374" y2="675.8"/>
<line class="st11" x1="-1020.3" y1="399.8" x2="-790.9" y2="399.8"/>
<line class="st12" x1="-1103" y1="485.1" x2="-967" y2="485.1"/>
<line class="st13" x1="-1103" y1="508.2" x2="-838.1" y2="508.2"/>
<line class="st13" x1="-827.7" y1="508.2" x2="-744.6" y2="508.2"/>
<line class="st13" x1="-1103" y1="521.4" x2="-923.1" y2="521.4"/>
<line class="st13" x1="-915.1" y1="521.4" x2="-859.1" y2="521.4"/>
<line class="st13" x1="-851.3" y1="521.4" x2="-792.8" y2="521.4"/>
<line class="st13" x1="-1103" y1="532.3" x2="-1021.3" y2="532.3"/>
<line class="st13" x1="-1013" y1="532.3" x2="-895.2" y2="532.3"/>
<line class="st12" x1="-1102.3" y1="561.7" x2="-966.3" y2="561.7"/>
<line class="st13" x1="-1102.3" y1="584.8" x2="-837.4" y2="584.8"/>
<line class="st13" x1="-827" y1="584.8" x2="-743.9" y2="584.8"/>
<line class="st13" x1="-1102.3" y1="598.1" x2="-922.4" y2="598.1"/>
<line class="st13" x1="-914.4" y1="598.1" x2="-858.4" y2="598.1"/>
<line class="st13" x1="-850.6" y1="598.1" x2="-792.1" y2="598.1"/>
<line class="st13" x1="-1102.3" y1="608.9" x2="-1020.6" y2="608.9"/>
<line class="st13" x1="-1012.3" y1="608.9" x2="-894.5" y2="608.9"/>
<line class="st12" x1="-1102.3" y1="561.7" x2="-966.3" y2="561.7"/>
<line class="st13" x1="-1102.3" y1="584.8" x2="-837.4" y2="584.8"/>
<line class="st13" x1="-827" y1="584.8" x2="-743.9" y2="584.8"/>
<line class="st13" x1="-1102.3" y1="598.1" x2="-922.4" y2="598.1"/>
<line class="st13" x1="-914.4" y1="598.1" x2="-858.4" y2="598.1"/>
<line class="st13" x1="-850.6" y1="598.1" x2="-792.1" y2="598.1"/>
<line class="st13" x1="-1102.3" y1="608.9" x2="-1020.6" y2="608.9"/>
<line class="st13" x1="-1012.3" y1="608.9" x2="-894.5" y2="608.9"/>
<line class="st12" x1="-1102.3" y1="642.7" x2="-966.3" y2="642.7"/>
<line class="st13" x1="-1102.3" y1="665.8" x2="-837.4" y2="665.8"/>
<line class="st13" x1="-827" y1="665.8" x2="-743.9" y2="665.8"/>
<line class="st13" x1="-1102.3" y1="679" x2="-922.4" y2="679"/>
<line class="st13" x1="-914.4" y1="679" x2="-858.4" y2="679"/>
<line class="st13" x1="-850.6" y1="679" x2="-792.1" y2="679"/>
<line class="st13" x1="-1102.3" y1="689.9" x2="-1020.6" y2="689.9"/>
<line class="st13" x1="-1012.3" y1="689.9" x2="-894.5" y2="689.9"/>
<line class="st12" x1="-1102.3" y1="642.7" x2="-966.3" y2="642.7"/>
<line class="st13" x1="-1102.3" y1="665.8" x2="-837.4" y2="665.8"/>
<line class="st13" x1="-827" y1="665.8" x2="-743.9" y2="665.8"/>
<line class="st13" x1="-1102.3" y1="679" x2="-922.4" y2="679"/>
<line class="st13" x1="-914.4" y1="679" x2="-858.4" y2="679"/>
<line class="st13" x1="-850.6" y1="679" x2="-792.1" y2="679"/>
<line class="st13" x1="-1102.3" y1="689.9" x2="-1020.6" y2="689.9"/>
<line class="st13" x1="-1012.3" y1="689.9" x2="-894.5" y2="689.9"/>
<line class="st11" x1="-1017.4" y1="-0.8" x2="-788" y2="-0.8"/>
<line class="st12" x1="-1100.1" y1="84.5" x2="-964.1" y2="84.5"/>
<line class="st13" x1="-1100.1" y1="107.6" x2="-835.2" y2="107.6"/>
<line class="st13" x1="-824.8" y1="107.6" x2="-741.7" y2="107.6"/>
<line class="st13" x1="-1100.1" y1="120.8" x2="-920.2" y2="120.8"/>
<line class="st13" x1="-912.2" y1="120.8" x2="-856.2" y2="120.8"/>
<line class="st13" x1="-848.4" y1="120.8" x2="-789.9" y2="120.8"/>
<line class="st13" x1="-1100.1" y1="131.7" x2="-1018.4" y2="131.7"/>
<line class="st13" x1="-1010.1" y1="131.7" x2="-892.3" y2="131.7"/>
<line class="st12" x1="-1099.3" y1="161.1" x2="-963.4" y2="161.1"/>
<line class="st13" x1="-1099.3" y1="184.2" x2="-834.5" y2="184.2"/>
<line class="st13" x1="-824.1" y1="184.2" x2="-741" y2="184.2"/>
<line class="st13" x1="-1099.3" y1="197.4" x2="-919.5" y2="197.4"/>
<line class="st13" x1="-911.4" y1="197.4" x2="-855.5" y2="197.4"/>
<line class="st13" x1="-847.7" y1="197.4" x2="-789.2" y2="197.4"/>
<line class="st13" x1="-1099.3" y1="208.3" x2="-1017.7" y2="208.3"/>
<line class="st13" x1="-1009.4" y1="208.3" x2="-891.6" y2="208.3"/>
<line class="st12" x1="-1099.3" y1="161.1" x2="-963.4" y2="161.1"/>
<line class="st13" x1="-1099.3" y1="184.2" x2="-834.5" y2="184.2"/>
<line class="st13" x1="-824.1" y1="184.2" x2="-741" y2="184.2"/>
<line class="st13" x1="-1099.3" y1="197.4" x2="-919.5" y2="197.4"/>
<line class="st13" x1="-911.4" y1="197.4" x2="-855.5" y2="197.4"/>
<line class="st13" x1="-847.7" y1="197.4" x2="-789.2" y2="197.4"/>
<line class="st13" x1="-1099.3" y1="208.3" x2="-1017.7" y2="208.3"/>
<line class="st13" x1="-1009.4" y1="208.3" x2="-891.6" y2="208.3"/>
<line class="st12" x1="-1099.3" y1="242" x2="-963.4" y2="242"/>
<line class="st13" x1="-1099.3" y1="265.2" x2="-834.5" y2="265.2"/>
<line class="st13" x1="-824.1" y1="265.2" x2="-741" y2="265.2"/>
<line class="st13" x1="-1099.3" y1="278.4" x2="-919.5" y2="278.4"/>
<line class="st13" x1="-911.4" y1="278.4" x2="-855.5" y2="278.4"/>
<line class="st13" x1="-847.7" y1="278.4" x2="-789.2" y2="278.4"/>
<line class="st13" x1="-1099.3" y1="289.3" x2="-1017.7" y2="289.3"/>
<line class="st13" x1="-1009.4" y1="289.3" x2="-891.6" y2="289.3"/>
<line class="st12" x1="-1099.3" y1="242" x2="-963.4" y2="242"/>
<line class="st13" x1="-1099.3" y1="265.2" x2="-834.5" y2="265.2"/>
<line class="st13" x1="-824.1" y1="265.2" x2="-741" y2="265.2"/>
<line class="st13" x1="-1099.3" y1="278.4" x2="-919.5" y2="278.4"/>
<line class="st13" x1="-911.4" y1="278.4" x2="-855.5" y2="278.4"/>
<line class="st13" x1="-847.7" y1="278.4" x2="-789.2" y2="278.4"/>
<line class="st13" x1="-1099.3" y1="289.3" x2="-1017.7" y2="289.3"/>
<line class="st13" x1="-1009.4" y1="289.3" x2="-891.6" y2="289.3"/>
</svg>
