<?xml version="1.0" encoding="utf-8"?>
<!-- Generator: Adobe Illustrator 26.3.1, SVG Export Plug-In . SVG Version: 6.00 Build 0)  -->
<svg version="1.1" id="Layer_1" xmlns="http://www.w3.org/2000/svg" xmlns:xlink="http://www.w3.org/1999/xlink" x="0px" y="0px"
	 viewBox="0 0 1080 1080" style="enable-background:new 0 0 1080 1080;" xml:space="preserve">
<style type="text/css">
	.st0{fill:none;stroke:#FFFFFF;stroke-width:9;stroke-miterlimit:10;}
	.st1{clip-path:url(#SVGID_00000007391156474114884930000008165606896828076705_);fill:#FFFFFF;}
	.st2{fill:none;stroke:#3A3A3D;stroke-width:5;stroke-miterlimit:10;}
	.st3{fill:#3A3A3D;}
	.st4{fill:#FFFFFF;}
	.st5{fill:none;stroke:#FFFFFF;stroke-width:5;stroke-miterlimit:10;}
	.st6{clip-path:url(#SVGID_00000044139015074923295520000014206442220160250269_);fill:#FFFFFF;}
	.st7{clip-path:url(#SVGID_00000136402093212095725350000003267892959530664090_);fill:#FFFFFF;}
	.st8{clip-path:url(#SVGID_00000121280844515329654580000018257010133947447974_);fill:#FFFFFF;}
	
		.st9{clip-path:url(#SVGID_00000085958849116099096910000014911732637071298990_);fill:#FFFFFF;stroke:#FFFFFF;stroke-width:13;stroke-miterlimit:10;}
	.st10{fill:#FFFFFF;stroke:#FFFFFF;stroke-width:13;stroke-miterlimit:10;}
</style>
<ellipse class="st0" cx="-2674.8" cy="178.2" rx="51" ry="49.7"/>
<g>
	<defs>
		<ellipse id="SVGID_1_" cx="-2674.8" cy="178.2" rx="51" ry="49.7"/>
	</defs>
	<clipPath id="SVGID_00000071527391557385865630000002699792197133676961_">
		<use xlink:href="#SVGID_1_"  style="overflow:visible;"/>
	</clipPath>
	
		<ellipse style="clip-path:url(#SVGID_00000071527391557385865630000002699792197133676961_);fill:#FFFFFF;" cx="-2671.9" cy="214.3" rx="37.1" ry="36.1"/>
</g>
<path class="st2" d="M-2694.3,199.7c0-6.9,17.9-6.9,17.9,0"/>
<path class="st2" d="M-2666.6,199.7c0-6.9,17.9-6.9,17.9,0"/>
<path class="st3" d="M-2683.2,214.5c0,5.4,24.1,5.4,24.1,0"/>
<path class="st3" d="M-2694.2,183c13.7,4.9,27.7,4.4,42,0c0,0,5.2-6.4-22.5-6.4S-2694.2,183-2694.2,183z"/>
<polygon class="st4" points="-2737.8,268.3 -2730.6,264.9 -2723.2,268.3 -2724.3,260.1 -2718.7,254.4 -2726.9,252.7 -2730.6,245.6 
	-2734.6,252.7 -2742.3,254.2 -2737.2,260.1 "/>
<polygon class="st4" points="-2709.6,268.3 -2702.4,264.9 -2695,268.3 -2696.1,260.1 -2690.5,254.4 -2698.6,252.7 -2702.4,245.6 
	-2706.4,252.7 -2714.1,254.2 -2709,260.1 "/>
<polygon class="st4" points="-2682.4,268.3 -2675.1,264.9 -2667.8,268.3 -2668.8,260.1 -2663.2,254.4 -2671.4,252.7 -2675.1,245.6 
	-2679.1,252.7 -2686.8,254.2 -2681.7,260.1 "/>
<polygon class="st4" points="-2655.2,268.3 -2647.9,264.9 -2640.6,268.3 -2641.6,260.1 -2636,254.4 -2644.2,252.7 -2647.9,245.6 
	-2651.9,252.7 -2659.6,254.2 -2654.5,260.1 "/>
<polygon class="st4" points="-2629.7,268.3 -2622.4,264.9 -2615.1,268.3 -2616.1,260.1 -2610.5,254.4 -2618.7,252.7 -2622.4,245.6 
	-2626.4,252.7 -2634.1,254.2 -2629,260.1 "/>
<line class="st0" x1="-2545.6" y1="156" x2="-2409.7" y2="156"/>
<line class="st5" x1="-2545.6" y1="179.1" x2="-2280.8" y2="179.1"/>
<line class="st5" x1="-2270.4" y1="179.1" x2="-2187.3" y2="179.1"/>
<line class="st5" x1="-2545.6" y1="192.4" x2="-2365.8" y2="192.4"/>
<line class="st5" x1="-2357.7" y1="192.4" x2="-2301.8" y2="192.4"/>
<line class="st5" x1="-2294" y1="192.4" x2="-2235.4" y2="192.4"/>
<line class="st5" x1="-2545.6" y1="203.2" x2="-2464" y2="203.2"/>
<line class="st5" x1="-2455.7" y1="203.2" x2="-2337.9" y2="203.2"/>
<line class="st0" x1="-2545.6" y1="156" x2="-2409.7" y2="156"/>
<line class="st0" x1="-2392.9" y1="156" x2="-2256.9" y2="156"/>
<line class="st5" x1="-2545.6" y1="179.1" x2="-2280.8" y2="179.1"/>
<line class="st5" x1="-2270.4" y1="179.1" x2="-2187.3" y2="179.1"/>
<line class="st5" x1="-2545.6" y1="192.4" x2="-2365.8" y2="192.4"/>
<line class="st5" x1="-2357.7" y1="192.4" x2="-2301.8" y2="192.4"/>
<line class="st5" x1="-2294" y1="192.4" x2="-2235.4" y2="192.4"/>
<line class="st5" x1="-2545.6" y1="203.2" x2="-2464" y2="203.2"/>
<line class="st5" x1="-2455.7" y1="203.2" x2="-2337.9" y2="203.2"/>
<ellipse class="st0" cx="-2680.7" cy="379.8" rx="51" ry="49.7"/>
<g>
	<defs>
		<ellipse id="SVGID_00000049223350856568105480000006629399581631478408_" cx="-2680.7" cy="379.8" rx="51" ry="49.7"/>
	</defs>
	<clipPath id="SVGID_00000002386747115609063140000002746929371897041074_">
		<use xlink:href="#SVGID_00000049223350856568105480000006629399581631478408_"  style="overflow:visible;"/>
	</clipPath>
	
		<ellipse style="clip-path:url(#SVGID_00000002386747115609063140000002746929371897041074_);fill:#FFFFFF;" cx="-2677.8" cy="416" rx="37.1" ry="36.1"/>
</g>
<path class="st2" d="M-2700.2,401.4c0-6.9,17.9-6.9,17.9,0"/>
<path class="st2" d="M-2672.5,401.4c0-6.9,17.9-6.9,17.9,0"/>
<path class="st3" d="M-2689.1,416.2c0,5.4,24.1,5.4,24.1,0"/>
<path class="st3" d="M-2700.1,384.7c13.7,4.9,27.7,4.4,42,0c0,0,5.2-6.4-22.5-6.4S-2700.1,384.7-2700.1,384.7z"/>
<polygon class="st4" points="-2744.7,470.9 -2737.4,467.5 -2730.1,470.9 -2731.1,462.7 -2725.5,457 -2733.7,455.3 -2737.4,448.2 
	-2741.4,455.3 -2749.1,456.8 -2744,462.7 "/>
<polygon class="st4" points="-2716.5,470.9 -2709.2,467.5 -2701.8,470.9 -2702.9,462.7 -2697.3,457 -2705.5,455.3 -2709.2,448.2 
	-2713.2,455.3 -2720.9,456.8 -2715.8,462.7 "/>
<polygon class="st4" points="-2689.2,470.9 -2681.9,467.5 -2674.6,470.9 -2675.7,462.7 -2670.1,457 -2678.2,455.3 -2681.9,448.2 
	-2686,455.3 -2693.7,456.8 -2688.6,462.7 "/>
<polygon class="st4" points="-2662,470.9 -2654.7,467.5 -2647.4,470.9 -2648.4,462.7 -2642.8,457 -2651,455.3 -2654.7,448.2 
	-2658.7,455.3 -2666.4,456.8 -2661.3,462.7 "/>
<polygon class="st4" points="-2636.5,470.9 -2629.2,467.5 -2621.9,470.9 -2623,462.7 -2617.4,457 -2625.5,455.3 -2629.2,448.2 
	-2633.2,455.3 -2641,456.8 -2635.9,462.7 "/>
<line class="st0" x1="-2560.1" y1="364.6" x2="-2424.2" y2="364.6"/>
<line class="st5" x1="-2560.1" y1="387.7" x2="-2295.3" y2="387.7"/>
<line class="st5" x1="-2284.9" y1="387.7" x2="-2201.8" y2="387.7"/>
<line class="st5" x1="-2560.1" y1="400.9" x2="-2380.3" y2="400.9"/>
<line class="st5" x1="-2372.2" y1="400.9" x2="-2316.3" y2="400.9"/>
<line class="st5" x1="-2308.5" y1="400.9" x2="-2249.9" y2="400.9"/>
<line class="st5" x1="-2560.1" y1="411.8" x2="-2478.5" y2="411.8"/>
<line class="st5" x1="-2470.2" y1="411.8" x2="-2352.4" y2="411.8"/>
<line class="st0" x1="-2560.1" y1="364.6" x2="-2424.2" y2="364.6"/>
<line class="st0" x1="-2407.4" y1="364.6" x2="-2271.4" y2="364.6"/>
<line class="st5" x1="-2560.1" y1="387.7" x2="-2295.3" y2="387.7"/>
<line class="st5" x1="-2284.9" y1="387.7" x2="-2201.8" y2="387.7"/>
<line class="st5" x1="-2560.1" y1="400.9" x2="-2380.3" y2="400.9"/>
<line class="st5" x1="-2372.2" y1="400.9" x2="-2316.3" y2="400.9"/>
<line class="st5" x1="-2308.5" y1="400.9" x2="-2249.9" y2="400.9"/>
<line class="st5" x1="-2560.1" y1="411.8" x2="-2478.5" y2="411.8"/>
<line class="st5" x1="-2470.2" y1="411.8" x2="-2352.4" y2="411.8"/>
<ellipse class="st0" cx="-2078.8" cy="159" rx="51" ry="49.7"/>
<g>
	<defs>
		<ellipse id="SVGID_00000106870211051620620780000017629784325436573070_" cx="-2078.8" cy="159" rx="51" ry="49.7"/>
	</defs>
	<clipPath id="SVGID_00000094606342574303194600000000323554896835366574_">
		<use xlink:href="#SVGID_00000106870211051620620780000017629784325436573070_"  style="overflow:visible;"/>
	</clipPath>
	
		<ellipse style="clip-path:url(#SVGID_00000094606342574303194600000000323554896835366574_);fill:#FFFFFF;" cx="-2075.9" cy="195.1" rx="37.1" ry="36.1"/>
</g>
<path class="st2" d="M-2098.3,180.6c0-6.9,17.9-6.9,17.9,0"/>
<path class="st2" d="M-2070.7,180.6c0-6.9,17.9-6.9,17.9,0"/>
<path class="st3" d="M-2087.3,195.3c0,5.4,24.1,5.4,24.1,0"/>
<path class="st3" d="M-2098.2,163.8c13.7,4.9,27.7,4.4,42,0c0,0,5.2-6.4-22.5-6.4S-2098.2,163.8-2098.2,163.8z"/>
<polygon class="st4" points="-2141.9,249.1 -2134.6,245.8 -2127.3,249.1 -2128.3,241 -2122.7,235.2 -2130.9,233.6 -2134.6,226.5 
	-2138.6,233.5 -2146.3,235 -2141.2,241 "/>
<polygon class="st4" points="-2113.7,249.1 -2106.4,245.8 -2099,249.1 -2100.1,241 -2094.5,235.2 -2102.7,233.6 -2106.4,226.5 
	-2110.4,233.5 -2118.1,235 -2113,241 "/>
<polygon class="st4" points="-2086.4,249.1 -2079.2,245.8 -2071.8,249.1 -2072.9,241 -2067.3,235.2 -2075.4,233.6 -2079.2,226.5 
	-2083.2,233.5 -2090.9,235 -2085.8,241 "/>
<polygon class="st4" points="-2059.2,249.1 -2051.9,245.8 -2044.6,249.1 -2045.6,241 -2040,235.2 -2048.2,233.6 -2051.9,226.5 
	-2055.9,233.5 -2063.6,235 -2058.5,241 "/>
<polygon class="st4" points="-2033.7,249.1 -2026.5,245.8 -2019.1,249.1 -2020.2,241 -2014.6,235.2 -2022.7,233.6 -2026.5,226.5 
	-2030.5,233.5 -2038.2,235 -2033.1,241 "/>
<line class="st0" x1="-1949.7" y1="136.8" x2="-1813.7" y2="136.8"/>
<line class="st5" x1="-1949.7" y1="160" x2="-1684.8" y2="160"/>
<line class="st5" x1="-1674.4" y1="160" x2="-1591.3" y2="160"/>
<line class="st5" x1="-1949.7" y1="173.2" x2="-1769.8" y2="173.2"/>
<line class="st5" x1="-1761.8" y1="173.2" x2="-1705.8" y2="173.2"/>
<line class="st5" x1="-1698" y1="173.2" x2="-1639.5" y2="173.2"/>
<line class="st5" x1="-1949.7" y1="184.1" x2="-1868" y2="184.1"/>
<line class="st5" x1="-1859.7" y1="184.1" x2="-1741.9" y2="184.1"/>
<line class="st0" x1="-1949.7" y1="136.8" x2="-1813.7" y2="136.8"/>
<line class="st0" x1="-1796.9" y1="136.8" x2="-1660.9" y2="136.8"/>
<line class="st5" x1="-1949.7" y1="160" x2="-1684.8" y2="160"/>
<line class="st5" x1="-1674.4" y1="160" x2="-1591.3" y2="160"/>
<line class="st5" x1="-1949.7" y1="173.2" x2="-1769.8" y2="173.2"/>
<line class="st5" x1="-1761.8" y1="173.2" x2="-1705.8" y2="173.2"/>
<line class="st5" x1="-1698" y1="173.2" x2="-1639.5" y2="173.2"/>
<line class="st5" x1="-1949.7" y1="184.1" x2="-1868" y2="184.1"/>
<line class="st5" x1="-1859.7" y1="184.1" x2="-1741.9" y2="184.1"/>
<ellipse class="st0" cx="-2084.7" cy="360.7" rx="51" ry="49.7"/>
<g>
	<defs>
		<ellipse id="SVGID_00000151515568192135997480000015304036543070403749_" cx="-2084.7" cy="360.7" rx="51" ry="49.7"/>
	</defs>
	<clipPath id="SVGID_00000026157692176360554290000010593637315046379167_">
		<use xlink:href="#SVGID_00000151515568192135997480000015304036543070403749_"  style="overflow:visible;"/>
	</clipPath>
	
		<ellipse style="clip-path:url(#SVGID_00000026157692176360554290000010593637315046379167_);fill:#FFFFFF;" cx="-2081.8" cy="396.8" rx="37.1" ry="36.1"/>
</g>
<path class="st2" d="M-2104.2,382.2c0-6.9,17.9-6.9,17.9,0"/>
<path class="st2" d="M-2076.6,382.2c0-6.9,17.9-6.9,17.9,0"/>
<path class="st3" d="M-2093.2,397c0,5.4,24.1,5.4,24.1,0"/>
<path class="st3" d="M-2104.1,365.5c13.7,4.9,27.7,4.4,42,0c0,0,5.2-6.4-22.5-6.4S-2104.1,365.5-2104.1,365.5z"/>
<polygon class="st4" points="104.6,1013.6 156.3,989.8 208.4,1013.6 200.9,955.6 240.7,914.7 182.7,903.2 156.3,852.6 127.9,902.7 
	73,913.5 109.3,955.7 "/>
<polygon class="st4" points="305,1013.6 356.8,989.8 408.9,1013.6 401.4,955.6 441.2,914.7 383.1,903.2 356.8,852.6 328.3,902.7 
	273.5,913.5 309.8,955.7 "/>
<polygon class="st4" points="498.5,1013.6 550.2,989.8 602.4,1013.6 594.9,955.6 634.7,914.7 576.6,903.2 550.2,852.6 521.8,902.7 
	467,913.5 503.3,955.7 "/>
<polygon class="st4" points="692,1013.6 743.7,989.8 795.9,1013.6 788.4,955.6 828.2,914.7 770.1,903.2 743.7,852.6 715.3,902.7 
	660.5,913.5 696.7,955.7 "/>
<polyline class="st4" points="924.7,852.6 896.2,902.7 841.4,913.5 877.7,955.7 873,1013.6 924.7,989.8 "/>
<line class="st0" x1="-1964.2" y1="345.4" x2="-1828.2" y2="345.4"/>
<line class="st5" x1="-1964.2" y1="368.5" x2="-1699.3" y2="368.5"/>
<line class="st5" x1="-1688.9" y1="368.5" x2="-1605.8" y2="368.5"/>
<line class="st5" x1="-1964.2" y1="381.8" x2="-1784.3" y2="381.8"/>
<line class="st5" x1="-1776.3" y1="381.8" x2="-1720.3" y2="381.8"/>
<line class="st5" x1="-1712.5" y1="381.8" x2="-1654" y2="381.8"/>
<line class="st5" x1="-1964.2" y1="392.6" x2="-1882.5" y2="392.6"/>
<line class="st5" x1="-1874.2" y1="392.6" x2="-1756.4" y2="392.6"/>
<line class="st0" x1="-1964.2" y1="345.4" x2="-1828.2" y2="345.4"/>
<line class="st0" x1="-1811.4" y1="345.4" x2="-1675.4" y2="345.4"/>
<line class="st5" x1="-1964.2" y1="368.5" x2="-1699.3" y2="368.5"/>
<line class="st5" x1="-1688.9" y1="368.5" x2="-1605.8" y2="368.5"/>
<line class="st5" x1="-1964.2" y1="381.8" x2="-1784.3" y2="381.8"/>
<line class="st5" x1="-1776.3" y1="381.8" x2="-1720.3" y2="381.8"/>
<line class="st5" x1="-1712.5" y1="381.8" x2="-1654" y2="381.8"/>
<line class="st5" x1="-1964.2" y1="392.6" x2="-1882.5" y2="392.6"/>
<line class="st5" x1="-1874.2" y1="392.6" x2="-1756.4" y2="392.6"/>
<ellipse class="st0" cx="537.7" cy="404.7" rx="358.9" ry="349.5"/>
<g>
	<defs>
		<ellipse id="SVGID_00000066501648136727446780000000376256400369536408_" cx="537.7" cy="404.7" rx="358.9" ry="349.5"/>
	</defs>
	<clipPath id="SVGID_00000018198669060549939750000013891639834183833775_">
		<use xlink:href="#SVGID_00000066501648136727446780000000376256400369536408_"  style="overflow:visible;"/>
	</clipPath>
	
		<ellipse style="clip-path:url(#SVGID_00000018198669060549939750000013891639834183833775_);fill:#FFFFFF;stroke:#FFFFFF;stroke-width:13;stroke-miterlimit:10;" cx="558.1" cy="659" rx="261.1" ry="254.3"/>
	
		<use xlink:href="#SVGID_00000066501648136727446780000000376256400369536408_"  style="overflow:visible;fill:none;stroke:#FFFFFF;stroke-width:48;stroke-miterlimit:10;"/>
</g>
<path class="st3" d="M475.5,658.1c0,38.2,169.7,38.2,169.7,0"/>
<ellipse class="st3" cx="475.5" cy="549.6" rx="29.9" ry="56.3"/>
<ellipse class="st3" cx="642.5" cy="549.6" rx="29.9" ry="56.3"/>
<path class="st10" d="M399.9,448v-153l107.3,107.3C507.2,402.3,460.2,409.4,399.9,448z"/>
<circle class="st10" cx="392.8" cy="279.8" r="18"/>
</svg>
