<?xml version="1.0" encoding="utf-8"?>
<!-- Generator: Adobe Illustrator 26.3.1, SVG Export Plug-In . SVG Version: 6.00 Build 0)  -->
<svg version="1.1" id="Layer_1" xmlns="http://www.w3.org/2000/svg" xmlns:xlink="http://www.w3.org/1999/xlink" x="0px" y="0px"
	 viewBox="0 0 1080 1080" style="enable-background:new 0 0 1080 1080;" xml:space="preserve">
<style type="text/css">
	.st0{fill:none;stroke:#FFFFFF;stroke-width:9;stroke-miterlimit:10;}
	.st1{clip-path:url(#SVGID_00000119840468200983250210000005668747574328009914_);fill:#FFFFFF;}
	.st2{fill:none;stroke:#3A3A3D;stroke-width:5;stroke-miterlimit:10;}
	.st3{fill:#3A3A3D;}
	.st4{fill:#FFFFFF;}
	.st5{fill:none;stroke:#FFFFFF;stroke-width:5;stroke-miterlimit:10;}
	.st6{clip-path:url(#SVGID_00000072979680786313072670000001648388595850153868_);fill:#FFFFFF;}
	.st7{clip-path:url(#SVGID_00000169551461136188497410000014930461972370513580_);fill:#FFFFFF;}
	.st8{clip-path:url(#SVGID_00000023241732474496608830000016387341848636526475_);fill:#FFFFFF;}
	
		.st9{clip-path:url(#SVGID_00000117654348371706733000000015692831246279850673_);fill:#FFFFFF;stroke:#FFFFFF;stroke-width:13;stroke-miterlimit:10;}
	.st10{fill:none;stroke:#3A3A3D;stroke-width:19;stroke-miterlimit:10;}
	.st11{fill:#3A3A3D;stroke:#3A3A3D;stroke-width:19;stroke-miterlimit:10;}
</style>
<ellipse class="st0" cx="-1335.4" cy="139" rx="51" ry="49.7"/>
<g>
	<defs>
		<ellipse id="SVGID_1_" cx="-1335.4" cy="139" rx="51" ry="49.7"/>
	</defs>
	<clipPath id="SVGID_00000015326668520014021920000018081813383666541444_">
		<use xlink:href="#SVGID_1_"  style="overflow:visible;"/>
	</clipPath>
	
		<ellipse style="clip-path:url(#SVGID_00000015326668520014021920000018081813383666541444_);fill:#FFFFFF;" cx="-1332.5" cy="175.1" rx="37.1" ry="36.1"/>
</g>
<path class="st2" d="M-1354.9,160.5c0-6.9,17.9-6.9,17.9,0"/>
<path class="st2" d="M-1327.3,160.5c0-6.9,17.9-6.9,17.9,0"/>
<path class="st3" d="M-1343.9,175.3c0,5.4,24.1,5.4,24.1,0"/>
<path class="st3" d="M-1354.8,143.8c13.7,4.9,27.7,4.4,42,0c0,0,5.2-6.4-22.5-6.4S-1354.8,143.8-1354.8,143.8z"/>
<polygon class="st4" points="-1398.5,229.1 -1391.2,225.7 -1383.9,229.1 -1384.9,220.9 -1379.3,215.2 -1387.5,213.6 -1391.2,206.4 
	-1395.2,213.5 -1402.9,215 -1397.8,220.9 "/>
<polygon class="st4" points="-1370.3,229.1 -1363,225.7 -1355.7,229.1 -1356.7,220.9 -1351.1,215.2 -1359.3,213.6 -1363,206.4 
	-1367,213.5 -1374.7,215 -1369.6,220.9 "/>
<polygon class="st4" points="-1343,229.1 -1335.8,225.7 -1328.4,229.1 -1329.5,220.9 -1323.9,215.2 -1332,213.6 -1335.8,206.4 
	-1339.8,213.5 -1347.5,215 -1342.4,220.9 "/>
<polygon class="st4" points="-1315.8,229.1 -1308.5,225.7 -1301.2,229.1 -1302.2,220.9 -1296.6,215.2 -1304.8,213.6 -1308.5,206.4 
	-1312.5,213.5 -1320.2,215 -1315.1,220.9 "/>
<polygon class="st4" points="-1290.3,229.1 -1283.1,225.7 -1275.7,229.1 -1276.8,220.9 -1271.2,215.2 -1279.3,213.6 -1283.1,206.4 
	-1287.1,213.5 -1294.8,215 -1289.7,220.9 "/>
<line class="st0" x1="-1206.3" y1="116.8" x2="-1070.3" y2="116.8"/>
<line class="st5" x1="-1206.3" y1="140" x2="-941.4" y2="140"/>
<line class="st5" x1="-931" y1="140" x2="-847.9" y2="140"/>
<line class="st5" x1="-1206.3" y1="153.2" x2="-1026.4" y2="153.2"/>
<line class="st5" x1="-1018.4" y1="153.2" x2="-962.4" y2="153.2"/>
<line class="st5" x1="-954.6" y1="153.2" x2="-896.1" y2="153.2"/>
<line class="st5" x1="-1206.3" y1="164" x2="-1124.6" y2="164"/>
<line class="st5" x1="-1116.3" y1="164" x2="-998.5" y2="164"/>
<line class="st0" x1="-1206.3" y1="116.8" x2="-1070.3" y2="116.8"/>
<line class="st0" x1="-1053.5" y1="116.8" x2="-917.5" y2="116.8"/>
<line class="st5" x1="-1206.3" y1="140" x2="-941.4" y2="140"/>
<line class="st5" x1="-931" y1="140" x2="-847.9" y2="140"/>
<line class="st5" x1="-1206.3" y1="153.2" x2="-1026.4" y2="153.2"/>
<line class="st5" x1="-1018.4" y1="153.2" x2="-962.4" y2="153.2"/>
<line class="st5" x1="-954.6" y1="153.2" x2="-896.1" y2="153.2"/>
<line class="st5" x1="-1206.3" y1="164" x2="-1124.6" y2="164"/>
<line class="st5" x1="-1116.3" y1="164" x2="-998.5" y2="164"/>
<ellipse class="st0" cx="-1341.3" cy="340.7" rx="51" ry="49.7"/>
<g>
	<defs>
		<ellipse id="SVGID_00000034055735329133974840000017699667639727177877_" cx="-1341.3" cy="340.7" rx="51" ry="49.7"/>
	</defs>
	<clipPath id="SVGID_00000008142308366627595930000008540377280555115673_">
		<use xlink:href="#SVGID_00000034055735329133974840000017699667639727177877_"  style="overflow:visible;"/>
	</clipPath>
	
		<ellipse style="clip-path:url(#SVGID_00000008142308366627595930000008540377280555115673_);fill:#FFFFFF;" cx="-1338.4" cy="376.8" rx="37.1" ry="36.1"/>
</g>
<path class="st2" d="M-1360.8,362.2c0-6.9,17.9-6.9,17.9,0"/>
<path class="st2" d="M-1333.2,362.2c0-6.9,17.9-6.9,17.9,0"/>
<path class="st3" d="M-1349.8,377c0,5.4,24.1,5.4,24.1,0"/>
<path class="st3" d="M-1360.7,345.5c13.7,4.9,27.7,4.4,42,0c0,0,5.2-6.4-22.5-6.4S-1360.7,345.5-1360.7,345.5z"/>
<polygon class="st4" points="-1405.3,431.7 -1398,428.3 -1390.7,431.7 -1391.7,423.5 -1386.1,417.8 -1394.3,416.2 -1398,409 
	-1402,416.1 -1409.7,417.6 -1404.6,423.5 "/>
<polygon class="st4" points="-1377.1,431.7 -1369.8,428.3 -1362.5,431.7 -1363.5,423.5 -1357.9,417.8 -1366.1,416.2 -1369.8,409 
	-1373.8,416.1 -1381.5,417.6 -1376.4,423.5 "/>
<polygon class="st4" points="-1349.9,431.7 -1342.6,428.3 -1335.2,431.7 -1336.3,423.5 -1330.7,417.8 -1338.9,416.2 -1342.6,409 
	-1346.6,416.1 -1354.3,417.6 -1349.2,423.5 "/>
<polygon class="st4" points="-1322.6,431.7 -1315.4,428.3 -1308,431.7 -1309.1,423.5 -1303.5,417.8 -1311.6,416.2 -1315.4,409 
	-1319.4,416.1 -1327.1,417.6 -1322,423.5 "/>
<polygon class="st4" points="-1297.2,431.7 -1289.9,428.3 -1282.5,431.7 -1283.6,423.5 -1278,417.8 -1286.2,416.2 -1289.9,409 
	-1293.9,416.1 -1301.6,417.6 -1296.5,423.5 "/>
<line class="st0" x1="-1220.8" y1="325.4" x2="-1084.8" y2="325.4"/>
<line class="st5" x1="-1220.8" y1="348.5" x2="-955.9" y2="348.5"/>
<line class="st5" x1="-945.5" y1="348.5" x2="-862.4" y2="348.5"/>
<line class="st5" x1="-1220.8" y1="361.7" x2="-1040.9" y2="361.7"/>
<line class="st5" x1="-1032.9" y1="361.7" x2="-976.9" y2="361.7"/>
<line class="st5" x1="-969.1" y1="361.7" x2="-910.6" y2="361.7"/>
<line class="st5" x1="-1220.8" y1="372.6" x2="-1139.1" y2="372.6"/>
<line class="st5" x1="-1130.8" y1="372.6" x2="-1013" y2="372.6"/>
<line class="st0" x1="-1220.8" y1="325.4" x2="-1084.8" y2="325.4"/>
<line class="st0" x1="-1068" y1="325.4" x2="-932" y2="325.4"/>
<line class="st5" x1="-1220.8" y1="348.5" x2="-955.9" y2="348.5"/>
<line class="st5" x1="-945.5" y1="348.5" x2="-862.4" y2="348.5"/>
<line class="st5" x1="-1220.8" y1="361.7" x2="-1040.9" y2="361.7"/>
<line class="st5" x1="-1032.9" y1="361.7" x2="-976.9" y2="361.7"/>
<line class="st5" x1="-969.1" y1="361.7" x2="-910.6" y2="361.7"/>
<line class="st5" x1="-1220.8" y1="372.6" x2="-1139.1" y2="372.6"/>
<line class="st5" x1="-1130.8" y1="372.6" x2="-1013" y2="372.6"/>
<ellipse class="st0" cx="-739.4" cy="119.8" rx="51" ry="49.7"/>
<g>
	<defs>
		<ellipse id="SVGID_00000064330491212460345110000015688004983668500132_" cx="-739.4" cy="119.8" rx="51" ry="49.7"/>
	</defs>
	<clipPath id="SVGID_00000119803161694754337220000001450514947870996671_">
		<use xlink:href="#SVGID_00000064330491212460345110000015688004983668500132_"  style="overflow:visible;"/>
	</clipPath>
	
		<ellipse style="clip-path:url(#SVGID_00000119803161694754337220000001450514947870996671_);fill:#FFFFFF;" cx="-736.5" cy="155.9" rx="37.1" ry="36.1"/>
</g>
<path class="st2" d="M-759,141.4c0-6.9,17.9-6.9,17.9,0"/>
<path class="st2" d="M-731.3,141.4c0-6.9,17.9-6.9,17.9,0"/>
<path class="st3" d="M-747.9,156.1c0,5.4,24.1,5.4,24.1,0"/>
<path class="st3" d="M-758.8,124.6c13.7,4.9,27.7,4.4,42,0c0,0,5.2-6.4-22.5-6.4S-758.8,124.6-758.8,124.6z"/>
<polygon class="st4" points="-802.5,209.9 -795.2,206.6 -787.9,209.9 -789,201.8 -783.4,196 -791.5,194.4 -795.2,187.3 
	-799.2,194.3 -807,195.8 -801.8,201.8 "/>
<polygon class="st4" points="-774.3,209.9 -767,206.6 -759.7,209.9 -760.7,201.8 -755.1,196 -763.3,194.4 -767,187.3 -771,194.3 
	-778.7,195.8 -773.6,201.8 "/>
<polygon class="st4" points="-747.1,209.9 -739.8,206.6 -732.5,209.9 -733.5,201.8 -727.9,196 -736.1,194.4 -739.8,187.3 
	-743.8,194.3 -751.5,195.8 -746.4,201.8 "/>
<polygon class="st4" points="-719.8,209.9 -712.6,206.6 -705.2,209.9 -706.3,201.8 -700.7,196 -708.9,194.4 -712.6,187.3 
	-716.6,194.3 -724.3,195.8 -719.2,201.8 "/>
<polygon class="st4" points="-694.4,209.9 -687.1,206.6 -679.8,209.9 -680.8,201.8 -675.2,196 -683.4,194.4 -687.1,187.3 
	-691.1,194.3 -698.8,195.8 -693.7,201.8 "/>
<line class="st0" x1="-610.3" y1="97.7" x2="-474.3" y2="97.7"/>
<line class="st5" x1="-610.3" y1="120.8" x2="-345.4" y2="120.8"/>
<line class="st5" x1="-335.1" y1="120.8" x2="-252" y2="120.8"/>
<line class="st5" x1="-610.3" y1="134" x2="-430.4" y2="134"/>
<line class="st5" x1="-422.4" y1="134" x2="-366.4" y2="134"/>
<line class="st5" x1="-358.7" y1="134" x2="-300.1" y2="134"/>
<line class="st5" x1="-610.3" y1="144.9" x2="-528.6" y2="144.9"/>
<line class="st5" x1="-520.4" y1="144.9" x2="-402.6" y2="144.9"/>
<line class="st0" x1="-610.3" y1="97.7" x2="-474.3" y2="97.7"/>
<line class="st0" x1="-457.5" y1="97.7" x2="-321.6" y2="97.7"/>
<line class="st5" x1="-610.3" y1="120.8" x2="-345.4" y2="120.8"/>
<line class="st5" x1="-335.1" y1="120.8" x2="-252" y2="120.8"/>
<line class="st5" x1="-610.3" y1="134" x2="-430.4" y2="134"/>
<line class="st5" x1="-422.4" y1="134" x2="-366.4" y2="134"/>
<line class="st5" x1="-358.7" y1="134" x2="-300.1" y2="134"/>
<line class="st5" x1="-610.3" y1="144.9" x2="-528.6" y2="144.9"/>
<line class="st5" x1="-520.4" y1="144.9" x2="-402.6" y2="144.9"/>
<ellipse class="st0" cx="-745.4" cy="321.5" rx="51" ry="49.7"/>
<g>
	<defs>
		<ellipse id="SVGID_00000103252790309534890080000010300602576131182746_" cx="-745.4" cy="321.5" rx="51" ry="49.7"/>
	</defs>
	<clipPath id="SVGID_00000180332051330926449940000001339143571995083926_">
		<use xlink:href="#SVGID_00000103252790309534890080000010300602576131182746_"  style="overflow:visible;"/>
	</clipPath>
	
		<ellipse style="clip-path:url(#SVGID_00000180332051330926449940000001339143571995083926_);fill:#FFFFFF;" cx="-742.5" cy="357.6" rx="37.1" ry="36.1"/>
</g>
<path class="st2" d="M-764.9,343.1c0-6.9,17.9-6.9,17.9,0"/>
<path class="st2" d="M-737.2,343.1c0-6.9,17.9-6.9,17.9,0"/>
<path class="st3" d="M-753.8,357.8c0,5.4,24.1,5.4,24.1,0"/>
<path class="st3" d="M-764.7,326.3c13.7,4.9,27.7,4.4,42,0c0,0,5.2-6.4-22.5-6.4S-764.7,326.3-764.7,326.3z"/>
<polygon class="st4" points="129.7,1055.9 181.4,1032.1 233.6,1055.9 226.1,998 265.9,957.1 207.8,945.5 181.4,895 153,945 
	98.2,955.8 134.4,998 "/>
<polygon class="st4" points="330.2,1055.9 381.9,1032.1 434,1055.9 426.5,998 466.3,957.1 408.2,945.5 381.9,895 353.4,945 
	298.6,955.8 334.9,998 "/>
<polygon class="st4" points="523.6,1055.9 575.4,1032.1 627.5,1055.9 620,998 659.8,957.1 601.7,945.5 575.4,895 546.9,945 
	492.1,955.8 528.4,998 "/>
<polygon class="st4" points="717.1,1055.9 768.8,1032.1 821,1055.9 813.5,998 853.3,957.1 795.2,945.5 768.8,895 740.4,945 
	685.6,955.8 721.9,998 "/>
<polygon class="st4" points="898.1,1055.9 949.8,1032.1 1002,1055.9 994.5,998 1034.2,957.1 976.2,945.5 949.8,895 921.4,945 
	866.5,955.8 902.8,998 "/>
<line class="st0" x1="-624.8" y1="306.2" x2="-488.8" y2="306.2"/>
<line class="st5" x1="-624.8" y1="329.3" x2="-359.9" y2="329.3"/>
<line class="st5" x1="-349.6" y1="329.3" x2="-266.5" y2="329.3"/>
<line class="st5" x1="-624.8" y1="342.6" x2="-444.9" y2="342.6"/>
<line class="st5" x1="-436.9" y1="342.6" x2="-380.9" y2="342.6"/>
<line class="st5" x1="-373.2" y1="342.6" x2="-314.6" y2="342.6"/>
<line class="st5" x1="-624.8" y1="353.4" x2="-543.1" y2="353.4"/>
<line class="st5" x1="-534.9" y1="353.4" x2="-417.1" y2="353.4"/>
<line class="st0" x1="-624.8" y1="306.2" x2="-488.8" y2="306.2"/>
<line class="st0" x1="-472" y1="306.2" x2="-336.1" y2="306.2"/>
<line class="st5" x1="-624.8" y1="329.3" x2="-359.9" y2="329.3"/>
<line class="st5" x1="-349.6" y1="329.3" x2="-266.5" y2="329.3"/>
<line class="st5" x1="-624.8" y1="342.6" x2="-444.9" y2="342.6"/>
<line class="st5" x1="-436.9" y1="342.6" x2="-380.9" y2="342.6"/>
<line class="st5" x1="-373.2" y1="342.6" x2="-314.6" y2="342.6"/>
<line class="st5" x1="-624.8" y1="353.4" x2="-543.1" y2="353.4"/>
<line class="st5" x1="-534.9" y1="353.4" x2="-417.1" y2="353.4"/>
<ellipse class="st0" cx="566.2" cy="435.8" rx="358.9" ry="349.5"/>
<g>
	<defs>
		<ellipse id="SVGID_00000075153585076148631330000014895065201325754555_" cx="566.2" cy="435.8" rx="358.9" ry="349.5"/>
	</defs>
	<clipPath id="SVGID_00000142158833337500084620000015562740195642634374_">
		<use xlink:href="#SVGID_00000075153585076148631330000014895065201325754555_"  style="overflow:visible;"/>
	</clipPath>
	
		<ellipse style="clip-path:url(#SVGID_00000142158833337500084620000015562740195642634374_);fill:#FFFFFF;stroke:#FFFFFF;stroke-width:13;stroke-miterlimit:10;" cx="586.6" cy="690.1" rx="261.1" ry="254.3"/>
	
		<use xlink:href="#SVGID_00000075153585076148631330000014895065201325754555_"  style="overflow:visible;fill:none;stroke:#FFFFFF;stroke-width:48;stroke-miterlimit:10;"/>
</g>
<path class="st10" d="M428.9,587.6c0-48.8,125.8-48.8,125.8,0"/>
<path class="st10" d="M623.6,587.6c0-48.8,125.8-48.8,125.8,0"/>
<path class="st3" d="M504,689.2c0,38.2,169.7,38.2,169.7,0"/>
<path class="st11" d="M414.8,498.6c119.4,22.1,235.7,25,348,3.9c0,0-72.6-66.7-176.3-66.7S414.8,498.6,414.8,498.6z"/>
</svg>
